<svg xmlns="http://www.w3.org/2000/svg" viewBox="0 0 161.13 109.55"><defs><style>.cls-1,.cls-2,.cls-3,.cls-4{fill:none;stroke:#b71453;stroke-miterlimit:10;stroke-width:0.5px;}.cls-2,.cls-3,.cls-4,.cls-6{isolation:isolate;}.cls-2{opacity:0.25;}.cls-3{opacity:0.1;}.cls-4{opacity:0.05;}.cls-5{fill:#b71453;}.cls-7{fill:#314480;}</style></defs><g id="Layer_2" data-name="Layer 2"><g id="Layer_1-2" data-name="Layer 1"><g id="Group_2" data-name="Group 2"><g id="Group_4" data-name="Group 4"><g id="Group_5" data-name="Group 5"><path id="Path_18" data-name="Path 18" class="cls-1" d="M90,48V61.59l11.81,6.82,11.8-6.82V48l-11.8-6.82Z"/><path id="Path_19" data-name="Path 19" class="cls-2" d="M78.22,27.58V41.22L90,48l11.81-6.81V27.58L90,20.76Z"/><path id="Path_20" data-name="Path 20" class="cls-1" d="M90,48V61.59l11.81,6.82,11.8-6.82V48l-11.8-6.82Z"/><path id="Path_21" data-name="Path 21" class="cls-3" d="M78.22,68.4V82L90,88.85,101.84,82V68.4L90,61.59Z"/><path id="Path_22" data-name="Path 22" class="cls-2" d="M66.41,48V61.59l11.81,6.82L90,61.6V48L78.22,41.14Z"/><path id="Path_23" data-name="Path 23" class="cls-3" d="M66.41,7.11V20.74l11.81,6.82L90,20.74V7.11L78.22.29Z"/><path id="Path_24" data-name="Path 24" class="cls-4" d="M42.8,7.11V20.74l11.8,6.82,11.81-6.82V7.11L54.61.29Z"/><path id="Path_25" data-name="Path 25" class="cls-4" d="M137.26,7.11V20.74l11.81,6.82,11.81-6.82V7.11L149.07.29Z"/><path id="Path_26" data-name="Path 26" class="cls-3" d="M125.45,27.58V41.22L137.26,48l11.81-6.81V27.58l-11.81-6.82Z"/><path id="Path_27" data-name="Path 27" class="cls-2" d="M101.84,68.4V82l11.81,6.81L125.45,82V68.4l-11.81-6.81Z"/><path id="Path_28" data-name="Path 28" class="cls-3" d="M66.41,88.81v13.64l11.81,6.81L90,102.45V88.81L78.22,82Z"/><path id="Path_29" data-name="Path 29" class="cls-2" d="M90,88.55v13.64L101.84,109l11.8-6.82V88.55l-11.8-6.81Z"/><path id="Path_30" data-name="Path 30" class="cls-2" d="M113.64,48V61.59l11.81,6.82,11.81-6.82V48l-11.81-6.82Z"/><path id="Path_31" data-name="Path 31" class="cls-2" d="M125.45,68.4V82l11.81,6.81L149.07,82V68.4l-11.81-6.81Z"/><path id="Path_32" data-name="Path 32" class="cls-3" d="M42.8,48V61.59l11.81,6.82,11.8-6.81V48l-11.8-6.82Z"/><g id="Group_1" data-name="Group 1"><circle id="Ellipse_1" data-name="Ellipse 1" class="cls-5" cx="90.12" cy="61.56" r="3.14"/><circle id="Ellipse_2" data-name="Ellipse 2" class="cls-5" cx="90.12" cy="48.06" r="3.14"/><circle id="Ellipse_3" data-name="Ellipse 3" class="cls-5" cx="101.84" cy="41.25" r="3.14"/><circle id="Ellipse_4" data-name="Ellipse 4" class="cls-5" cx="101.84" cy="55.26" r="3.14"/><circle id="Ellipse_5" data-name="Ellipse 5" class="cls-5" cx="113.55" cy="48.06" r="3.14"/><circle id="Ellipse_6" data-name="Ellipse 6" class="cls-5" cx="113.55" cy="61.56" r="3.14"/><circle id="Ellipse_7" data-name="Ellipse 7" class="cls-5" cx="101.84" cy="68.3" r="3.14"/></g><g id="grexx" class="cls-6"><g class="cls-6"><path class="cls-7" d="M12.36,45.53l2.7,2-1.65,2.1A6.3,6.3,0,0,1,15,54.05c0,1.83-.69,4.41-3.12,5.52a5,5,0,0,1,3.06,4.89c0,4.08-3.12,6.6-7.41,6.6S0,68.45,0,64.46H3.63c0,1.92,1.77,3.18,3.87,3.18s3.75-1.14,3.75-3.18-1.92-3-3.75-3c-4.62,0-7.5-2.82-7.5-7.44a7.21,7.21,0,0,1,7.5-7.5,5.89,5.89,0,0,1,3.39.84ZM3.63,54.05A3.82,3.82,0,0,0,7.5,58.16a3.83,3.83,0,0,0,3.84-4.11,3.87,3.87,0,1,0-7.71,0Z"/><path class="cls-7" d="M21,47l.27,1.71a4.36,4.36,0,0,1,4.17-2.1,5.61,5.61,0,0,1,3.81,1.41l-1.65,3.18a3.66,3.66,0,0,0-2.64-1A3.41,3.41,0,0,0,21.24,54v7.8H17.58V47Z"/><path class="cls-7" d="M34,55.73c.24,1.83,1.83,3.15,4.41,3.15a6.1,6.1,0,0,0,4-1.38l2.34,2.31a9.08,9.08,0,0,1-6.36,2.4c-5.1,0-8.13-3.15-8.13-7.89,0-4.5,3.06-7.74,7.86-7.74,5,0,8,3.06,7.47,9.15Zm8-3c-.24-1.92-1.74-2.88-3.84-2.88a4,4,0,0,0-4.14,2.88Z"/><path class="cls-7" d="M57.75,47h4.38v.12l-4.86,7.17,5.16,7.41v.09H58.05l-3.21-5-3.21,5H47.25v-.09l5.16-7.41-4.86-7.17V47h4.38l2.91,5Z"/><path class="cls-7" d="M74,47h4.38v.12L73.5,54.32l5.16,7.41v.09H74.28l-3.21-5-3.21,5H63.48v-.09l5.16-7.41-4.86-7.17V47h4.38l2.91,5Z"/></g></g></g></g></g></g></g></svg>